<?xml version="1.0" standalone="no"?>
<!DOCTYPE svg PUBLIC "-//W3C//DTD SVG 20010904//EN"
 "http://www.w3.org/TR/2001/REC-SVG-20010904/DTD/svg10.dtd">
<svg version="1.0" xmlns="http://www.w3.org/2000/svg"
 width="245.000000pt" height="245.000000pt" viewBox="0 0 245.000000 245.000000"
 preserveAspectRatio="xMidYMid meet">
<metadata>
Created by potrace 1.11, written by Peter Selinger 2001-2013
</metadata>
<g transform="translate(0.000000,245.000000) scale(0.100000,-0.100000)"
fill="#000000" stroke="none">
<path d="M561 2318 c-118 -117 -183 -201 -174 -224 6 -16 2 -15 75 -18 107 -5
215 -86 243 -183 5 -20 3 -21 -33 -16 -47 6 -80 -9 -88 -42 -3 -14 -7 -25 -9
-25 -1 0 -24 10 -51 22 -68 30 -227 66 -251 57 -30 -11 -36 -34 -42 -161 -5
-102 -9 -119 -28 -140 -12 -13 -24 -34 -25 -48 -4 -36 66 -75 192 -105 155
-38 201 -55 235 -87 34 -32 29 -31 -80 21 -38 19 -88 36 -111 38 -35 5 -42 2
-46 -15 -7 -24 19 -85 63 -148 55 -80 104 -120 251 -204 l78 -44 -63 -26
c-320 -137 -519 -419 -475 -675 29 -164 150 -247 413 -284 76 -11 1236 -8
1295 3 270 50 381 149 383 344 2 258 -186 488 -514 626 l-66 28 22 46 c12 26
37 81 55 122 19 41 62 114 97 163 35 48 63 91 63 96 0 4 18 16 40 26 55 25
120 92 157 162 40 75 88 216 80 236 -11 29 -69 49 -158 57 -82 6 -91 10 -133
43 -24 21 -49 37 -54 37 -21 0 -70 -71 -101 -143 -17 -42 -31 -80 -31 -86 0
-5 -5 -13 -11 -17 -23 -14 -3 174 31 285 17 57 34 131 37 165 5 55 3 63 -18
82 -13 12 -58 34 -99 48 -41 15 -88 32 -103 38 -16 6 -36 22 -44 35 -19 29
-45 24 -91 -20 -47 -45 -83 -125 -87 -194 -2 -32 -4 -62 -4 -66 -1 -5 -13 1
-27 12 -34 27 -44 26 -69 -5 -20 -26 -164 -85 -213 -88 -28 -1 -52 38 -107
171 -20 48 -48 100 -61 114 -25 27 -107 59 -149 59 -12 0 -34 9 -48 20 -14 11
-27 20 -29 20 -1 0 -54 -51 -117 -112z m309 -898 c0 -5 -2 -10 -4 -10 -3 0 -8
5 -11 10 -3 6 -1 10 4 10 6 0 11 -4 11 -10z"/>
</g>
</svg>
